<?xml version="1.0" encoding="utf-8"?>
<!-- Generator: Adobe Illustrator 24.0.2, SVG Export Plug-In . SVG Version: 6.00 Build 0)  -->
<svg version="1.1" id="Capa_1" xmlns="http://www.w3.org/2000/svg" xmlns:xlink="http://www.w3.org/1999/xlink" x="0px" y="0px"
	 viewBox="0 0 707.8 167" style="enable-background:new 0 0 707.8 167; fill:white;" xml:space="preserve">
<g>
	<path d="M660.4,127.9C637.6,83.5,600,57.7,553.1,44.6c-61.4-17.2-122-13-181.5,9.1c-54.3,20.2-101.5,51.8-144.7,90
		c-1.8,1.6-4.6,2.6-7,2.7c-6.8,0.4-13.7,0.1-20.5,0.2c-1.4,0-3.2,0.1-4.2,1c-4.4,3.5-8.5,7.3-12.7,10.9c0.4,0.6,0.9,1.2,1.3,1.8
		c1.6,0.1,3.2,0.3,4.7,0.3c9.2,0,18.4-0.8,27.5,0.2c12.7,1.4,22.8-1.9,31.3-11.7c4.2-4.9,10-8.5,15.5-13c2.9,7.4,5.7,13.8,8,20.4
		c1.1,3.2,2.7,4.3,6.1,4.3c10.8-0.2,21.7-0.1,32.5-0.1c1.2,0,2.4-0.3,4.2-0.5c-5.2-13.2-10.1-25.9-15.1-38.6
		c-4.1-10.3-4.3-10.6,4.9-16.7c10.8-7.1,21.9-13.8,32.8-20.7c0.4,0.4,0.8,0.7,1.3,1.1c-5.3,24.9-10.5,49.8-15.9,75.4
		c11.8,0,22.6-0.2,33.4,0.1c5,0.1,9.2-0.1,9.8-6.4c0-0.2,0.5-0.3,0.8-0.5c3.5,2.2,6.7,4.9,10.4,6.6c12,5.4,24.4,4.4,36.7,0.9
		c13.4-3.9,23.8-12.1,31.2-23.7c11-17.3,17.4-36,14.1-56.9c-1.9-12.4-7.8-22.4-18.8-29.5c14.3-4.8,61.8-6.3,80.8-2.5
		c-0.6,0.5-0.8,0.8-1.1,0.9c-0.9,0.3-1.9,0.6-2.9,0.8c-10.2,2.4-19.6,6.6-27.7,13.2c-22.8,18.5-28.3,43.5-25.6,71
		c1.2,13,9.4,21.6,21.8,25.4c18.7,5.8,37.5,5.8,56-0.7c12-4.2,22.4-11.2,29.7-21.9c2.4-3.5,4.1-7.6,6.3-11.7
		c-1.7-0.3-2.2-0.5-2.6-0.5c-8.5,0-17,0.2-25.5-0.1c-6-0.2-10.6,0.4-14.2,6.7c-4.8,8.3-18.4,11.4-26.9,7.8
		c-6.6-2.8-8.5-8.3-7.5-19.8c0.4-4.4,2-5.8,6.5-5.8c23,0.2,46,0,69,0.2c3.3,0,5-0.9,5.2-4.3c0.6-8.9,2.1-18,1.5-26.8
		c-0.4-7-3.4-13.9-5.3-21.2c5.3,2.4,10.8,5.1,16.4,7.5c2.9,1.2,3.4,3.1,2.7,6c-4.2,19-8.2,38.1-12.3,57.2
		c-1.9,9.1-3.8,18.1-5.8,27.9c13.6,0,26.4,0.1,39.1-0.2c1,0,2.5-2.3,2.8-3.8c2.3-9.9,4.3-19.9,6.4-29.8c2-9.4,4-18.7,6.1-28.3
		c8.9,6.2,9.8,8.2,7.9,17.4c-0.8,4.1-1.8,8.1-2.6,12.2c-2.2,10.6-4.4,21.1-6.8,32.1c14,0,27.4,0,41.3,0c-1-3.9-1.5-7.3-2.7-10.6
		C666.5,142.3,664,134.8,660.4,127.9z M408.5,127.2c-3.9,6.6-9.3,11.2-17,12.7c-7.6,1.5-13.1-1.7-15.5-9c-0.4-1.1-0.8-2.2-0.9-3.4
		c-1.6-16.8,1.9-32.4,11.2-46.5c3.5-5.3,8.8-8.5,15.4-9c10.5-0.7,15.8,3.9,16.7,14.5c0.1,1.5,0.1,3,0.2,4.8
		C417.6,103.8,415.1,116.1,408.5,127.2z M543.1,90.7c-0.2,0.7-1.4,1.5-2.2,1.5c-11.9,0.1-23.8,0.1-35.7,0.1
		c1.1-13.3,10.9-23.1,23.2-23.8c5.1-0.3,9.6,1.4,12.3,6C543.7,79.5,544.6,85,543.1,90.7z"/>
	<path d="M121.7,74.5c-8-3.5-16.7-5.5-25.1-8.1c-8.7-2.7-17.7-4.7-26-8.4c-8.4-3.7-9.5-12.8-3-19.4c2.4-2.4,5.5-4.5,8.6-5.8
		c15.6-6.6,28.4,0.5,28.8,15.7c0,0.3,0.3,0.6,0.7,1.3c13,0,26.3,0.1,39.6-0.2c1.2,0,3-2.4,3.4-3.9c4.8-19.9-4.2-35.3-24.1-41.1
		C101.3-2.2,78-1.1,55.3,6.9c-19.5,6.8-32.5,20.4-37.7,40.8c-4.9,19.2,2,33.1,20.2,40.7c3.7,1.5,7.4,2.9,11.3,4.1
		c11.2,3.3,22.4,6.2,33.6,9.7c5.5,1.7,10.1,4.8,10.7,11.2c0.6,6.8-2.6,11.9-8.3,15.4c-9,5.5-18.7,6.9-28.8,3.8
		c-8.3-2.5-12.5-8.8-12-17.4c0.1-1.1,0.1-2.3,0.2-3.9c-13.7,0-27.2-0.1-40.6,0.1c-1,0-2.7,1.5-2.8,2.5c-3.7,20.4,1.8,39.2,25.8,46.1
		c26.3,7.5,52.5,6.2,77.7-4.7c20.1-8.8,33.1-23.6,35.9-46.2C142.4,93.2,136.3,80.9,121.7,74.5z"/>
	<path d="M669.1,3.2c-4-0.1-5.4,1.2-6.2,5.1c-5.3,25.7-11,51.4-16.2,77.2c-0.5,2.4,0.3,5.6,1.7,7.7c8.3,12.8,14.9,26.4,19.3,41
		c2,6.5,3.3,13.2,5.3,21.1c10.9-51.3,21.6-101.2,32.4-152C692.7,3.3,680.9,3.4,669.1,3.2z"/>
	<path d="M203.8,50.1c-12.7,0-24.6,0.2-36.6-0.1c-3.8-0.1-5.1,1.4-5.8,4.9c-4.4,21.4-9,42.7-13.5,64c-2.9,13.6-5.8,27.3-8.8,41.4
		c2.1,0.1,3.8,0.3,5.4,0.3c10.2,0,20.3-0.2,30.5,0.1c4,0.1,5.7-1,6.6-5.2c5.6-27.5,11.6-55,17.4-82.5
		C200.6,65.5,202.1,58.1,203.8,50.1z"/>
	<path d="M603.4,50.5c11,8.5,22.1,16.9,33.5,25.6c5-23.6,10.2-47.9,15.5-72.8c-13.5,0-26.1-0.1-38.7,0.1c-1,0-2.7,1.4-2.9,2.4
		c-3,13.6-5.9,27.3-8.7,41C601.7,47.9,602.5,49.8,603.4,50.5z"/>
	<path d="M203.8,39.1c1,0,2.6-1.2,2.8-2.1c2.5-11,4.8-22,7.3-33.7c-13.3,0-26.1-0.1-38.9,0.1c-1,0-2.6,1.5-2.8,2.6
		c-2.5,10.8-4.7,21.7-7.2,33.2C178.3,39.2,191,39.2,203.8,39.1z"/>
	<path d="M249.1,95.9c9.7-6.5,19.4-12.9,28.9-19.5c0.9-0.7,1.4-3.1,1-4.4c-2.1-6.1-4.8-12.1-6.9-18.2c-1-2.9-2.6-3.7-5.5-3.7
		c-10.3,0.1-20.6,0.1-31,0.1c-1.9,0-3.7,0-6.4,0c6.3,16.1,12.2,31,18.1,46C248.1,96,248.7,96.1,249.1,95.9z"/>
	<path d="M391.2,28.4c1.9-8.1,3.5-16.2,5.4-25.1c-9.8,0-18.6,0-27.4,0c-4.5,0-10.2-1.3-13,0.9s-2.8,8.1-3.7,12.4
		c-1.9,8.7-3.7,17.4-5.5,26.4c14.4-4.1,28.1-8,41.8-12C389.8,30.7,391,29.5,391.2,28.4z"/>
</g>
</svg>
